<svg width="20.000000" height="19.999996" viewBox="0 0 20 20" fill="none" xmlns="http://www.w3.org/2000/svg" xmlns:xlink="http://www.w3.org/1999/xlink">
	<desc>
			Created with Pixso.
	</desc>
	<defs/>
	<path id="Call" d="M17.76 13.92C16.46 12.88 15.14 12.26 13.86 13.29L13.1 13.91C12.54 14.36 11.5 16.48 7.48 12.17C3.46 7.86 5.85 7.19 6.41 6.74L7.18 6.12C8.45 5.08 7.97 3.78 7.05 2.44L6.5 1.63C5.58 0.29 4.57 -0.58 3.29 0.45L2.6 1.01C2.04 1.39 0.46 2.64 0.08 5.01C-0.38 7.84 1.07 11.1 4.4 14.66C7.72 18.23 10.98 20.03 14.06 19.99C16.63 19.97 18.17 18.69 18.66 18.22L19.35 17.66C20.62 16.63 19.83 15.58 18.53 14.54L17.76 13.92Z" fill="#FFFFFF" fill-opacity="1.000000" fill-rule="nonzero"/>
</svg>
